<svg xmlns:xlink="http://www.w3.org/1999/xlink" xmlns="http://www.w3.org/2000/svg" stroke-width="0.501" stroke-linejoin="bevel" fill-rule="evenodd" version="1.1" overflow="visible" viewBox="0 0 12 15" x="0px" y="0px"><g fill="none" stroke="black" font-family="Times New Roman" font-size="16" transform="scale(1 -1)"><g transform="translate(0 -12)"><g><path d="M 6.012,3.787 C 6.012,3.923 6.085,4.043 6.195,4.109 L 5.375,4.109 C 3.628,4.109 0.762,4.733 0.762,5.175 L 0.762,5.254 L 0.069,5.608 C -0.032,5.659 -0.021,5.701 0.092,5.701 L 0.825,5.701 L 0.058,7.819 C 0.031,7.889 0.04,7.938 0.112,7.949 L 0.538,7.935 C 0.687,7.942 0.806,7.867 0.908,7.754 L 2.533,6.117 L 3.456,5.712 L 9.903,5.712 C 10.757,5.712 12.013,5.353 12.013,4.912 L 12.013,4.911 C 12.013,4.531 11.089,4.213 10.287,4.13 C 10.419,4.071 10.512,3.94 10.512,3.787 C 10.512,3.58 10.343,3.412 10.136,3.412 C 9.929,3.412 9.76,3.58 9.76,3.787 C 9.76,3.923 9.833,4.043 9.943,4.108 C 9.93,4.109 9.916,4.109 9.903,4.109 L 9,4.109 C 8.932,3.852 8.572,3.676 8.3,3.676 L 7.494,3.788 C 7.077,3.899 6.853,3.957 6.783,4.109 L 6.58,4.109 C 6.69,4.043 6.764,3.923 6.764,3.787 C 6.764,3.58 6.595,3.412 6.388,3.412 C 6.181,3.412 6.012,3.58 6.012,3.787 Z M 2.898,5.018 L 2.898,5.097 C 2.898,5.137 2.865,5.17 2.825,5.17 L 2.802,5.17 C 2.762,5.17 2.729,5.137 2.729,5.097 L 2.729,5.018 C 2.729,4.978 2.762,4.945 2.802,4.945 L 2.825,4.945 C 2.865,4.945 2.898,4.978 2.898,5.018 Z M 3.263,5.018 L 3.263,5.097 C 3.263,5.137 3.23,5.17 3.19,5.17 L 3.167,5.17 C 3.127,5.17 3.094,5.137 3.094,5.097 L 3.094,5.018 C 3.094,4.978 3.127,4.945 3.167,4.945 L 3.19,4.945 C 3.23,4.945 3.263,4.978 3.263,5.018 Z M 3.628,5.018 L 3.628,5.097 C 3.628,5.137 3.595,5.17 3.555,5.17 L 3.532,5.17 C 3.492,5.17 3.459,5.137 3.459,5.097 L 3.459,5.018 C 3.459,4.978 3.492,4.945 3.532,4.945 L 3.555,4.945 C 3.595,4.945 3.628,4.978 3.628,5.018 Z M 3.993,5.018 L 3.993,5.097 C 3.993,5.137 3.96,5.17 3.92,5.17 L 3.897,5.17 C 3.857,5.17 3.824,5.137 3.824,5.097 L 3.824,5.018 C 3.824,4.978 3.857,4.945 3.897,4.945 L 3.92,4.945 C 3.96,4.945 3.993,4.978 3.993,5.018 Z M 4.359,5.018 L 4.359,5.097 C 4.359,5.137 4.326,5.17 4.286,5.17 L 4.263,5.17 C 4.223,5.17 4.19,5.137 4.19,5.097 L 4.19,5.018 C 4.19,4.978 4.223,4.945 4.263,4.945 L 4.286,4.945 C 4.326,4.945 4.359,4.978 4.359,5.018 Z M 4.724,5.018 L 4.724,5.097 C 4.724,5.137 4.691,5.17 4.651,5.17 L 4.628,5.17 C 4.588,5.17 4.555,5.137 4.555,5.097 L 4.555,5.018 C 4.555,4.978 4.588,4.945 4.628,4.945 L 4.651,4.945 C 4.691,4.945 4.724,4.978 4.724,5.018 Z M 5.089,5.018 L 5.089,5.097 C 5.089,5.137 5.056,5.17 5.016,5.17 L 4.993,5.17 C 4.953,5.17 4.92,5.137 4.92,5.097 L 4.92,5.018 C 4.92,4.978 4.953,4.945 4.993,4.945 L 5.016,4.945 C 5.056,4.945 5.089,4.978 5.089,5.018 Z M 5.455,5.018 L 5.455,5.097 C 5.455,5.137 5.422,5.17 5.382,5.17 L 5.359,5.17 C 5.319,5.17 5.286,5.137 5.286,5.097 L 5.286,5.018 C 5.286,4.978 5.319,4.945 5.359,4.945 L 5.382,4.945 C 5.422,4.945 5.455,4.978 5.455,5.018 Z M 5.82,5.018 L 5.82,5.097 C 5.82,5.137 5.787,5.17 5.747,5.17 L 5.724,5.17 C 5.684,5.17 5.651,5.137 5.651,5.097 L 5.651,5.018 C 5.651,4.978 5.684,4.945 5.724,4.945 L 5.747,4.945 C 5.787,4.945 5.82,4.978 5.82,5.018 Z M 6.185,5.018 L 6.185,5.097 C 6.185,5.137 6.152,5.17 6.112,5.17 L 6.089,5.17 C 6.049,5.17 6.016,5.137 6.016,5.097 L 6.016,5.018 C 6.016,4.978 6.049,4.945 6.089,4.945 L 6.112,4.945 C 6.152,4.945 6.185,4.978 6.185,5.018 Z M 6.551,5.018 L 6.551,5.097 C 6.551,5.137 6.518,5.17 6.478,5.17 L 6.455,5.17 C 6.415,5.17 6.382,5.137 6.382,5.097 L 6.382,5.018 C 6.382,4.978 6.415,4.945 6.455,4.945 L 6.478,4.945 C 6.518,4.945 6.551,4.978 6.551,5.018 Z M 6.916,5.018 L 6.916,5.097 C 6.916,5.137 6.883,5.17 6.843,5.17 L 6.82,5.17 C 6.78,5.17 6.747,5.137 6.747,5.097 L 6.747,5.018 C 6.747,4.978 6.78,4.945 6.82,4.945 L 6.843,4.945 C 6.883,4.945 6.916,4.978 6.916,5.018 Z M 7.281,5.018 L 7.281,5.097 C 7.281,5.137 7.248,5.17 7.208,5.17 L 7.185,5.17 C 7.145,5.17 7.112,5.137 7.112,5.097 L 7.112,5.018 C 7.112,4.978 7.145,4.945 7.185,4.945 L 7.208,4.945 C 7.248,4.945 7.281,4.978 7.281,5.018 Z M 7.647,5.018 L 7.647,5.097 C 7.647,5.137 7.614,5.17 7.574,5.17 L 7.551,5.17 C 7.511,5.17 7.478,5.137 7.478,5.097 L 7.478,5.018 C 7.478,4.978 7.511,4.945 7.551,4.945 L 7.574,4.945 C 7.614,4.945 7.647,4.978 7.647,5.018 Z M 8.012,5.018 L 8.012,5.097 C 8.012,5.137 7.979,5.17 7.939,5.17 L 7.916,5.17 C 7.876,5.17 7.843,5.137 7.843,5.097 L 7.843,5.018 C 7.843,4.978 7.876,4.945 7.916,4.945 L 7.939,4.945 C 7.979,4.945 8.012,4.978 8.012,5.018 Z M 8.377,5.018 L 8.377,5.097 C 8.377,5.137 8.344,5.17 8.304,5.17 L 8.281,5.17 C 8.241,5.17 8.208,5.137 8.208,5.097 L 8.208,5.018 C 8.208,4.978 8.241,4.945 8.281,4.945 L 8.304,4.945 C 8.344,4.945 8.377,4.978 8.377,5.018 Z M 8.743,5.018 L 8.743,5.097 C 8.743,5.137 8.71,5.17 8.67,5.17 L 8.647,5.17 C 8.607,5.17 8.574,5.137 8.574,5.097 L 8.574,5.018 C 8.574,4.978 8.607,4.945 8.647,4.945 L 8.67,4.945 C 8.71,4.945 8.743,4.978 8.743,5.018 Z M 9.108,5.018 L 9.108,5.097 C 9.108,5.137 9.075,5.17 9.035,5.17 L 9.012,5.17 C 8.972,5.17 8.939,5.137 8.939,5.097 L 8.939,5.018 C 8.939,4.978 8.972,4.945 9.012,4.945 L 9.035,4.945 C 9.075,4.945 9.108,4.978 9.108,5.018 Z M 9.473,5.018 L 9.473,5.097 C 9.473,5.137 9.44,5.17 9.4,5.17 L 9.377,5.17 C 9.337,5.17 9.304,5.137 9.304,5.097 L 9.304,5.018 C 9.304,4.978 9.337,4.945 9.377,4.945 L 9.4,4.945 C 9.44,4.945 9.473,4.978 9.473,5.018 Z M 9.839,5.018 L 9.839,5.097 C 9.839,5.137 9.806,5.17 9.766,5.17 L 9.743,5.17 C 9.703,5.17 9.67,5.137 9.67,5.097 L 9.67,5.018 C 9.67,4.978 9.703,4.945 9.743,4.945 L 9.766,4.945 C 9.806,4.945 9.839,4.978 9.839,5.018 Z M 10.204,5.018 L 10.204,5.097 C 10.204,5.137 10.171,5.17 10.131,5.17 L 10.108,5.17 C 10.068,5.17 10.035,5.137 10.035,5.097 L 10.035,5.018 C 10.035,4.978 10.068,4.945 10.108,4.945 L 10.131,4.945 C 10.171,4.945 10.204,4.978 10.204,5.018 Z M 10.57,5.018 L 10.57,5.097 C 10.57,5.137 10.537,5.17 10.497,5.17 L 10.474,5.17 C 10.434,5.17 10.401,5.137 10.401,5.097 L 10.401,5.018 C 10.401,4.978 10.434,4.945 10.474,4.945 L 10.497,4.945 C 10.537,4.945 10.57,4.978 10.57,5.018 Z" stroke="none" fill="#000000" stroke-width="0.5" stroke-linejoin="round" stroke-linecap="round" marker-start="none" marker-end="none" stroke-miterlimit="79.8403193612775"/></g></g></g><text x="0" y="27" fill="#000000" font-size="5px" font-weight="bold" font-family="'Helvetica Neue', Helvetica, Arial-Unicode, Arial, Sans-serif">Created by Denis Sazhin</text><text x="0" y="32" fill="#000000" font-size="5px" font-weight="bold" font-family="'Helvetica Neue', Helvetica, Arial-Unicode, Arial, Sans-serif">from the Noun Project</text></svg>