<svg xmlns="http://www.w3.org/2000/svg" xmlns:xlink="http://www.w3.org/1999/xlink" viewBox="0 0 100 125" version="1.1" xml:space="preserve" style="" x="0px" y="0px" fill-rule="evenodd" clip-rule="evenodd" stroke-linejoin="round" stroke-miterlimit="1.41421"><path d="M63.904,53.577L81.97,53.577C88.481,53.624 88.452,55.528 90.106,56.399C91.782,57.282 95.098,58.471 95.098,60.158C95.098,61.791 89.088,64.497 82.599,64.665L81.97,64.674L65.753,64.674L65.753,65.196C65.753,65.936 65.151,66.537 64.411,66.537L50.216,66.537C49.476,66.537 48.874,65.936 48.874,65.196L48.874,64.674L36.094,64.674L36.086,64.661C28.273,64.4 14.165,59.794 9.43,58.343C8.719,58.125 7.51,57.115 7.51,55.713C7.51,54.393 8.276,53.672 9.61,53.586L4.902,40.831L9.661,40.845L23.439,53.571C26.765,53.574 29.37,53.577 29.427,53.577L41.032,53.577L33.387,35.141L37.983,34.771L63.904,53.577Z" style="" fill="black"/><text x="0" y="115" fill="#000000" font-size="5px" font-weight="bold" font-family="'Helvetica Neue', Helvetica, Arial-Unicode, Arial, Sans-serif">Created by Jared Pike</text><text x="0" y="120" fill="#000000" font-size="5px" font-weight="bold" font-family="'Helvetica Neue', Helvetica, Arial-Unicode, Arial, Sans-serif">from the Noun Project</text></svg>